# xmcd
#
# Track frame offsets: 
#        150
#        18525
#        36090
#        53643
#        80586
#        84383
#
# Disc length: 1391 seconds
#
# Revision: 0
# Processed by: cddbd v1.5.2PL0 Copyright (c) Steve Scherf et al.
# Submitted via: ExactAudioCopy v0.99pb5
#
DISCID=3e056d06
DTITLE=Steen1 - Paskasheriffin Paluu
DYEAR=2010
DGENRE=Rap
TTITLE0=N‰lk‰inen MC
TTITLE1=Foliop‰‰
TTITLE2=Astronauttilaulu (feat. Massmurda-Pena and Kastanja H)
TTITLE3=Menny v‰h‰ huonosti (feat. Michael J. Fax, Bulle, Retale, Pana
TTITLE3=ma Rayo, Aztra, VakioAkli ja Palervo Kalsa)
TTITLE4=H‰meenlinna-Helsinki (pienet v‰lil‰p‰t)
TTITLE5=Kuus lyhytt‰
EXTD=
EXTT0=
EXTT1=
EXTT2=
EXTT3=
EXTT4=
EXTT5=
PLAYORDER=
